<svg width="32" height="32" fill="none" xmlns="http://www.w3.org/2000/svg"><path d="M30.226 22.678a2.716 2.716 0 01-2.713 2.713 2.716 2.716 0 01-2.713-2.713 2.716 2.716 0 012.713-2.713c1.53.07 2.713 1.252 2.713 2.713z" fill="#283276"/><path d="M12.556 12.66a2.716 2.716 0 01-2.713 2.714c-1.53 0-2.713-1.183-2.713-2.713a2.716 2.716 0 012.713-2.713 2.716 2.716 0 012.713 2.713z" fill="#F29FC5"/><path d="M25.217 19.756a2.716 2.716 0 01-2.713 2.713c-1.53 0-2.643-1.252-2.643-2.713a2.716 2.716 0 012.713-2.712c1.53 0 2.643 1.252 2.643 2.712z" fill="#008ECF"/><path d="M18.678 23.026a2.716 2.716 0 01-2.713 2.713c-1.53 0-2.713-1.183-2.713-2.713a2.716 2.716 0 012.713-2.713c1.53 0 2.713 1.183 2.713 2.713z" fill="#F29FC5"/><path d="M18.678 29.287A2.716 2.716 0 0115.965 32a2.716 2.716 0 01-2.713-2.713 2.716 2.716 0 012.713-2.713c1.53.07 2.713 1.252 2.713 2.713zM30.226 9.322a2.716 2.716 0 01-2.713 2.713A2.716 2.716 0 0124.8 9.322a2.716 2.716 0 012.713-2.713c1.53.07 2.713 1.252 2.713 2.713zM25.217 12.66a2.716 2.716 0 01-2.713 2.714c-1.53 0-2.643-1.183-2.643-2.713a2.716 2.716 0 012.713-2.713c1.53 0 2.643 1.252 2.643 2.713zM12.209 19.965a2.716 2.716 0 01-2.713 2.713c-1.53 0-2.714-1.182-2.714-2.713a2.716 2.716 0 012.714-2.713 2.716 2.716 0 012.713 2.713zM7.06 8.765c.349 1.461-.556 2.852-2.016 3.2-1.461.348-2.853-.556-3.2-2.017-.279-1.461.626-2.922 2.017-3.2 1.46-.348 2.922.556 3.2 2.017z" fill="#283276"/><path d="M6.852 14.54c-.139.834-.904 1.39-1.739 1.32-.835-.138-1.391-.903-1.322-1.738.14-.835.905-1.392 1.74-1.322.834.14 1.39.904 1.321 1.74zM22.226 25.6c-.14.974-1.043 1.6-2.017 1.46-.974-.138-1.6-1.043-1.461-2.016.139-.974 1.043-1.6 2.017-1.461.905.139 1.53 1.043 1.461 2.017zM27.374 14.47c-.07.556-.626.973-1.183.904-.556-.07-.974-.626-.904-1.183.07-.556.626-.974 1.183-.904.626.07.973.626.904 1.183zM16.939 9.53c-.14.835-.904 1.392-1.74 1.322-.834-.139-1.39-.904-1.32-1.739.138-.835.904-1.391 1.738-1.322.905.14 1.461.905 1.322 1.74z" fill="#E1000F"/><path d="M21.322 7.513c-.14.835-.904 1.391-1.74 1.322-.834-.14-1.39-.905-1.321-1.74.14-.834.904-1.39 1.74-1.321.903.14 1.46.904 1.32 1.74z" fill="#F29FC5"/><path d="M11.444 24.278c-.14.835-.905 1.392-1.74 1.322-.834-.14-1.39-.904-1.321-1.74.139-.834.904-1.39 1.739-1.32.835.138 1.391.973 1.322 1.738zM26.4 17.46c-.14.836-.904 1.392-1.74 1.322-.834-.139-1.39-.904-1.32-1.739.138-.834.904-1.39 1.738-1.321.905.139 1.461.904 1.322 1.739z" fill="#FFE000"/><path d="M24.66 24.557c.418.695.21 1.67-.486 2.087-.696.417-1.67.208-2.087-.487-.417-.696-.209-1.67.487-2.087.696-.487 1.67-.21 2.087.487z" fill="#283276"/><path d="M13.043 6.609c-.139.834-.904 1.39-1.739 1.321-.834-.139-1.39-.904-1.321-1.739.139-.835.904-1.391 1.739-1.321.835.139 1.391.904 1.322 1.739z" fill="#FFE000"/><path d="M18.817 2.783a2.79 2.79 0 01-2.782 2.782 2.79 2.79 0 01-2.783-2.782A2.79 2.79 0 0116.035 0a2.79 2.79 0 012.782 2.783zM7.13 22.678a2.716 2.716 0 01-2.713 2.713c-1.53 0-2.643-1.252-2.643-2.713a2.716 2.716 0 012.713-2.713c1.53 0 2.643 1.252 2.643 2.713zM20.348 15.444a4.661 4.661 0 11-9.322-.001 4.661 4.661 0 019.322 0z" fill="#008ECF"/></svg>